HIERARCHY
ROOT Hips
{
	OFFSET 0.000000 89.005402 0.000000
	CHANNELS 6 Xposition Yposition Zposition Xrotation Yrotation Zrotation
	JOINT Spine
	{
		OFFSET 0.116900 10.681000 0.373400
		CHANNELS 3 Xrotation Yrotation Zrotation
		JOINT Spine1
		{
			OFFSET 0.000000 13.840401 0.053500
			CHANNELS 3 Xrotation Yrotation Zrotation
			JOINT Spine2
			{
				OFFSET 0.000000 14.712700 -0.366200
				CHANNELS 3 Xrotation Yrotation Zrotation
				JOINT Neck
				{
					OFFSET 0.000000 35.415497 -3.314200
					CHANNELS 3 Xrotation Yrotation Zrotation
					JOINT Head
					{
						OFFSET 0.000000 16.899200 1.218300
						CHANNELS 3 Xrotation Yrotation Zrotation
						JOINT HeadTop_End
						{
							OFFSET 0.000000 22.206207 2.192500
							CHANNELS 3 Xrotation Yrotation Zrotation
							End Site
							{
								OFFSET 0.000000 22.314178 0.000000
							}
						}
					}
				}
				JOINT LeftShoulder
				{
					OFFSET 12.896400 26.716293 -4.548400
					CHANNELS 3 Xrotation Yrotation Zrotation
					JOINT LeftArm
					{
						OFFSET 19.027000 -4.857010 -1.718400
						CHANNELS 3 Xrotation Yrotation Zrotation
						JOINT LeftForeArm
						{
							OFFSET 24.179897 0.000000 0.000000
							CHANNELS 3 Xrotation Yrotation Zrotation
							JOINT LeftHand
							{
								OFFSET 27.156403 0.000000 0.000000
								CHANNELS 3 Xrotation Yrotation Zrotation
								JOINT LeftHandIndex1
								{
									OFFSET 16.441200 0.000000 0.000000
									CHANNELS 3 Xrotation Yrotation Zrotation
									JOINT LeftHandIndex2
									{
										OFFSET 4.821899 0.000000 0.000000
										CHANNELS 3 Xrotation Yrotation Zrotation
										JOINT LeftHandIndex3
										{
											OFFSET 6.386497 0.000000 0.000000
											CHANNELS 3 Xrotation Yrotation Zrotation
											JOINT LeftHandIndex4
											{
												OFFSET 5.188988 0.000000 0.000000
												CHANNELS 3 Xrotation Yrotation Zrotation
												End Site
												{
													OFFSET -0.178703 5.185913 0.000177
												}
											}
										}
									}
								}
								JOINT LeftHandThumb1
								{
									OFFSET 6.534897 -5.032593 5.900300
									CHANNELS 3 Xrotation Yrotation Zrotation
									JOINT LeftHandThumb2
									{
										OFFSET 3.818176 -2.204422 2.204423
										CHANNELS 3 Xrotation Yrotation Zrotation
										JOINT LeftHandThumb3
										{
											OFFSET 3.252098 -1.877594 1.877601
											CHANNELS 3 Xrotation Yrotation Zrotation
											JOINT LeftHandThumb4
											{
												OFFSET 5.251778 -3.032120 3.032117
												CHANNELS 3 Xrotation Yrotation Zrotation
												End Site
												{
													OFFSET 0.000023 6.780014 0.000000
												}
											}
										}
									}
								}
							}
						}
					}
				}
				JOINT RightShoulder
				{
					OFFSET -12.896300 26.716293 -4.548400
					CHANNELS 3 Xrotation Yrotation Zrotation
					JOINT RightArm
					{
						OFFSET -19.027000 -4.857010 -1.718400
						CHANNELS 3 Xrotation Yrotation Zrotation
						JOINT RightForeArm
						{
							OFFSET -24.179897 0.000000 0.000000
							CHANNELS 3 Xrotation Yrotation Zrotation
							JOINT RightHand
							{
								OFFSET -27.156403 0.000000 0.000000
								CHANNELS 3 Xrotation Yrotation Zrotation
								JOINT RightHandThumb1
								{
									OFFSET -6.591202 -4.852203 5.988100
									CHANNELS 3 Xrotation Yrotation Zrotation
									JOINT RightHandThumb2
									{
										OFFSET -3.818176 -2.204422 2.204423
										CHANNELS 3 Xrotation Yrotation Zrotation
										JOINT RightHandThumb3
										{
											OFFSET -3.252098 -1.877594 1.877601
											CHANNELS 3 Xrotation Yrotation Zrotation
											JOINT RightHandThumb4
											{
												OFFSET -5.251778 -3.032120 3.032117
												CHANNELS 3 Xrotation Yrotation Zrotation
												End Site
												{
													OFFSET -0.000023 6.780014 0.000000
												}
											}
										}
									}
								}
								JOINT RightHandIndex1
								{
									OFFSET -16.029404 0.000000 0.000000
									CHANNELS 3 Xrotation Yrotation Zrotation
									JOINT RightHandIndex2
									{
										OFFSET -5.213303 0.000000 0.000000
										CHANNELS 3 Xrotation Yrotation Zrotation
										JOINT RightHandIndex3
										{
											OFFSET -6.386528 0.000000 0.000000
											CHANNELS 3 Xrotation Yrotation Zrotation
											JOINT RightHandIndex4
											{
												OFFSET -5.189026 0.000000 0.000000
												CHANNELS 3 Xrotation Yrotation Zrotation
												End Site
												{
													OFFSET 0.236702 5.183624 0.001972
												}
											}
										}
									}
								}
							}
						}
					}
				}
			}
		}
	}
	JOINT LeftUpLeg
	{
		OFFSET 14.073000 -7.904099 -1.463000
		CHANNELS 3 Xrotation Yrotation Zrotation
		JOINT LeftLeg
		{
			OFFSET -0.109806 -34.073280 4.093200
			CHANNELS 3 Xrotation Yrotation Zrotation
			JOINT LeftFoot
			{
				OFFSET 0.109806 -29.899420 -6.319000
				CHANNELS 3 Xrotation Yrotation Zrotation
				JOINT LeftToeBase
				{
					OFFSET 1.551100 -14.988700 20.535801
					CHANNELS 3 Xrotation Yrotation Zrotation
					JOINT LeftToe_End
					{
						OFFSET 0.221200 0.570800 13.248301
						CHANNELS 3 Xrotation Yrotation Zrotation
						End Site
						{
							OFFSET 0.000000 13.262435 0.000000
						}
					}
				}
			}
		}
	}
	JOINT RightUpLeg
	{
		OFFSET -13.839300 -7.904099 -1.463000
		CHANNELS 3 Xrotation Yrotation Zrotation
		JOINT RightLeg
		{
			OFFSET 0.109694 -34.073219 4.093300
			CHANNELS 3 Xrotation Yrotation Zrotation
			JOINT RightFoot
			{
				OFFSET -0.109694 -29.899384 -6.319200
				CHANNELS 3 Xrotation Yrotation Zrotation
				JOINT RightToeBase
				{
					OFFSET -1.551100 -14.988700 20.535801
					CHANNELS 3 Xrotation Yrotation Zrotation
					JOINT RightToe_End
					{
						OFFSET -0.221200 0.570900 13.248299
						CHANNELS 3 Xrotation Yrotation Zrotation
						End Site
						{
							OFFSET 0.000000 13.262440 0.000000
						}
					}
				}
			}
		}
	}
}
MOTION
Frames: 8
Frame Time: 0.033333
0.293209 66.766968 7.358326 51.427336 -0.302927 -2.292835 1.552498 0.185661 0.176217 3.907975 0.426681 0.699541 3.908400 0.432594 0.695241 -26.495653 -1.386535 3.282465 -27.358145 0.789760 -4.969101 0.000000 0.000000 -0.000000 3.575173 -12.995882 -6.032040 -49.015271 -54.592596 -89.109599 0.000003 -0.019622 0.000000 10.588936 10.097371 -9.317718 1.083343 6.705527 -67.770824 1.160433 3.501484 -36.662178 1.379375 3.777271 -40.110201 0.000000 -0.000000 0.000000 53.417834 -58.203396 -1.904852 24.634305 22.667902 -20.232549 3.342247 37.866292 23.350771 -0.000001 0.000001 -0.000000 3.705303 11.015353 15.109680 -44.753267 46.613801 76.842381 0.000000 0.864663 -0.000003 33.171917 1.985594 33.824401 42.310829 34.896307 13.793804 16.851308 -20.758272 -4.962523 3.222814 -35.414145 -21.752257 -0.000001 -0.000000 0.000001 1.375410 -5.012851 49.705127 1.447728 -3.376466 46.406252 0.848488 -2.682126 35.104126 -0.000001 -0.000001 0.000000 -101.071589 -3.100121 19.689229 62.822598 -3.595820 -8.658531 -11.904027 0.828333 -4.073929 0.365865 0.000006 0.000002 -0.000000 0.000001 0.000000 -100.729793 -3.814077 -19.029479 61.631966 3.606887 10.286114 -11.735809 -0.342031 0.519566 0.496860 0.000000 -0.000000 -0.000000 0.000000 0.000000 
0.296662 66.747162 7.605194 51.525670 -0.311388 -2.290778 1.594517 0.153318 0.189510 3.950067 0.390489 0.708710 3.950619 0.396128 0.704122 -26.799463 -1.371610 3.244575 -28.225432 0.762243 -4.935973 0.000000 0.000000 -0.000000 3.554211 -12.925505 -6.630332 -49.239247 -54.861333 -88.750187 0.000001 -0.000006 -0.000000 11.280338 10.443982 -11.167738 1.083345 6.705529 -67.770817 1.160435 3.501484 -36.662184 1.379374 3.777271 -40.110204 -0.000001 0.000001 0.000000 53.417827 -58.203396 -1.904853 24.634310 22.667902 -20.232545 3.342243 37.866289 23.350772 -0.000001 0.000001 0.000001 3.646218 11.415741 15.613587 -44.655319 47.130225 75.884324 -0.000005 0.000015 0.000001 32.196894 1.765545 34.940577 42.310836 34.896311 13.793811 16.851306 -20.758270 -4.962523 3.222811 -35.414148 -21.752267 -0.000000 0.000001 -0.000001 1.375411 -5.012851 49.705127 1.447728 -3.376466 46.406255 0.848487 -2.682128 35.104123 -0.000000 -0.000000 -0.000000 -100.977401 -3.235347 19.573075 63.080390 -3.430445 -8.492322 -12.300884 0.861290 -4.326225 0.365410 0.000002 -0.000006 0.000000 0.000001 0.000000 -100.680622 -3.870257 -19.068664 61.838969 3.700292 10.248227 -12.102635 -0.327275 0.558558 0.496860 0.000001 -0.000000 0.000000 0.000000 0.000000 
0.319297 66.761208 7.895798 51.254802 -0.185563 -2.266365 1.648755 0.155219 0.187247 3.987473 0.378464 0.704866 3.987979 0.384553 0.700342 -27.074187 -1.369480 3.156958 -29.234900 0.565804 -4.933894 0.000000 0.000000 -0.000000 3.533406 -12.934833 -7.568603 -49.395781 -55.498825 -88.045913 0.000004 0.000004 -0.000005 12.599352 10.781992 -13.567831 1.083345 6.705529 -67.770817 1.160434 3.501482 -36.662178 1.379375 3.777271 -40.110197 -0.000001 0.000000 0.000000 53.417830 -58.203396 -1.904854 24.634308 22.667909 -20.232545 3.342245 37.866289 23.350769 -0.000002 -0.000004 0.000001 3.583962 11.813653 16.168856 -43.684838 47.551214 74.147905 0.000002 0.000001 -0.000001 30.512955 1.015206 36.243183 42.310833 34.896311 13.793809 16.851310 -20.758268 -4.962522 3.222814 -35.414145 -21.752269 -0.000000 0.000002 -0.000000 1.375411 -5.012849 49.705134 1.447729 -3.376466 46.406252 0.848488 -2.682126 35.104133 0.000000 -0.000001 -0.000000 -100.478728 -3.240724 19.319919 63.356473 -3.286138 -8.252645 -12.775348 0.899469 -4.576367 0.364051 -0.000001 0.000002 0.000000 0.000001 0.000000 -100.246932 -3.824791 -19.246339 62.199316 3.800955 10.209492 -12.624411 -0.309070 0.654110 0.496860 -0.000000 -0.000000 -0.000000 0.000002 0.000000 
0.345824 66.838516 8.211674 50.511783 -0.003602 -2.230272 1.709476 0.171183 0.159685 4.016938 0.377083 0.684219 4.017366 0.384588 0.679821 -27.278758 -1.392153 3.116193 -30.155442 0.355754 -4.891084 0.000000 0.000000 0.000000 3.536788 -13.022904 -8.383034 -49.727520 -56.403487 -87.307474 0.000004 0.000000 -0.000006 14.124595 10.872906 -16.075643 1.083345 6.705528 -67.770817 1.160434 3.501485 -36.662174 1.379374 3.777272 -40.110201 -0.000000 0.000000 0.000000 53.417830 -58.203396 -1.904852 24.634307 22.667902 -20.232543 3.342250 37.866292 23.350772 -0.000001 0.000001 0.000003 3.549524 12.012249 16.633628 -43.057311 47.955506 72.759048 -0.000001 0.000019 0.000014 28.508720 0.088611 37.220624 42.310836 34.896314 13.793804 16.851308 -20.758273 -4.962524 3.222806 -35.414148 -21.752262 0.000003 0.000000 0.000001 1.375411 -5.012850 49.705127 1.447727 -3.376465 46.406252 0.848488 -2.682126 35.104126 0.000001 -0.000001 -0.000000 -99.466057 -3.159382 19.008323 63.641032 -3.150112 -7.924627 -13.317391 0.945320 -4.853287 0.361184 -0.000001 0.000007 -0.000000 -0.000001 0.000000 -99.274313 -3.682413 -19.436352 62.618546 3.835652 10.171811 -13.244014 -0.286787 0.821876 0.496860 -0.000001 -0.000000 0.000000 0.000000 0.000000 
0.367362 67.031311 8.529457 49.279023 0.098752 -2.211442 1.748981 0.157184 0.143279 4.018610 0.352945 0.674654 4.019016 0.361384 0.670062 -27.417614 -1.378750 3.121884 -30.662389 0.430120 -4.672941 0.000000 -0.000000 -0.000000 3.587949 -13.016228 -8.823590 -50.430142 -57.198511 -86.863914 0.000005 0.000003 0.000012 15.293116 10.653307 -18.390640 1.083343 6.705527 -67.770817 1.160434 3.501483 -36.662178 1.379374 3.777270 -40.110204 -0.000000 0.000000 -0.000000 53.417834 -58.203396 -1.904849 24.634307 22.667904 -20.232543 3.342244 37.866289 23.350771 0.000002 0.000002 -0.000002 3.543934 12.026934 16.947323 -42.967825 48.790384 71.924631 -0.000007 0.000001 0.000004 26.541558 -1.067318 38.102767 42.310833 34.896314 13.793804 16.851308 -20.758270 -4.962518 3.222809 -35.414145 -21.752257 0.000005 0.000000 -0.000001 1.375409 -5.012850 49.705127 1.447729 -3.376466 46.406252 0.848486 -2.682127 35.104129 -0.000000 -0.000000 0.000000 -97.871720 -3.108738 18.726698 63.878470 -2.930742 -7.489473 -13.895072 1.002189 -5.227525 0.356205 -0.000003 0.000005 -0.000000 0.000001 0.000000 -97.654356 -3.555778 -19.477002 62.863401 3.774777 10.134183 -13.827088 -0.262088 1.036172 0.496860 0.000000 -0.000000 -0.000000 0.000000 0.000000 
0.398736 67.404495 8.843193 47.614632 0.165796 -2.197916 1.751366 0.107842 0.150221 3.978756 0.299133 0.682656 3.979323 0.307527 0.677582 -27.542570 -1.313096 3.079362 -30.702209 0.673568 -4.201079 -0.000000 -0.000000 0.000000 3.693831 -12.670297 -9.074727 -51.793902 -58.188676 -87.068861 0.000000 -0.000000 0.000001 15.790074 10.463612 -20.390717 1.083346 6.705529 -67.770817 1.160433 3.501483 -36.662178 1.379374 3.777270 -40.110204 -0.000001 0.000000 0.000000 53.417830 -58.203396 -1.904855 24.634305 22.667902 -20.232543 3.342243 37.866289 23.350769 0.000003 -0.000001 0.000001 3.556832 11.925642 17.204900 -43.213070 50.040725 71.302387 0.000008 0.000000 -0.000002 24.888077 -2.148038 39.102560 42.310836 34.896314 13.793807 16.851310 -20.758273 -4.962525 3.222809 -35.414145 -21.752264 0.000003 -0.000001 0.000001 1.375410 -5.012848 49.705127 1.447728 -3.376466 46.406259 0.848488 -2.682127 35.104123 -0.000000 -0.000000 0.000001 -95.641431 -3.023567 18.429891 63.846751 -2.611637 -6.999773 -14.407890 1.060096 -5.644388 0.349684 -0.000003 0.000002 -0.000000 -0.000000 0.000000 -95.405134 -3.554805 -19.332437 62.786712 3.601222 9.890387 -14.301823 -0.269019 1.369225 0.496860 -0.000001 -0.000000 -0.000000 0.000001 -0.000000 
0.448611 68.021561 9.139168 45.516305 0.265834 -2.136313 1.740965 0.063291 0.156915 3.918677 0.248102 0.690422 3.919378 0.256484 0.684997 -27.659322 -1.272667 3.029166 -30.239245 0.795085 -3.908994 -0.000000 0.000000 -0.000000 3.845028 -12.046124 -9.188374 -53.984975 -59.507484 -88.028537 0.000002 0.000005 -0.000001 15.637081 10.264372 -22.133631 1.083344 6.705529 -67.770817 1.160434 3.501485 -36.662178 1.379375 3.777272 -40.110204 0.000001 -0.000000 -0.000000 53.417823 -58.203396 -1.904852 24.634310 22.667904 -20.232545 3.342240 37.866282 23.350771 -0.000003 -0.000001 0.000002 3.578740 11.781130 17.272555 -43.788274 51.438909 70.827791 0.000002 0.000011 0.000014 23.513039 -3.175575 40.119111 42.310826 34.896311 13.793806 16.851299 -20.758268 -4.962522 3.222809 -35.414152 -21.752257 0.000000 0.000000 0.000001 1.375408 -5.012848 49.705131 1.447728 -3.376463 46.406255 0.848488 -2.682126 35.104129 0.000001 -0.000000 0.000000 -92.671023 -2.755131 18.074398 63.307391 -2.232861 -6.508746 -14.744522 1.108207 -6.012508 0.343759 0.000001 -0.000003 -0.000000 -0.000001 0.000000 -92.459779 -3.636274 -19.117191 62.238132 3.347970 9.524618 -14.587143 -0.295600 1.770687 0.496860 0.000000 -0.000000 -0.000000 -0.000001 0.000000 
0.494504 68.923706 9.381927 42.964806 0.352612 -2.003451 1.750239 0.062903 0.149993 3.867085 0.237601 0.681797 3.867738 0.246292 0.676618 -27.766640 -1.279667 2.972847 -28.995478 0.695389 -3.883743 -0.000000 -0.000000 -0.000000 4.010971 -11.511806 -9.111499 -56.548301 -60.817767 -89.326696 0.000004 -0.000006 -0.000000 14.400148 10.056736 -23.604212 1.083343 6.705529 -67.770817 1.160434 3.501484 -36.662184 1.379375 3.777270 -40.110201 -0.000001 0.000000 0.000000 53.417834 -58.203396 -1.904848 24.634308 22.667909 -20.232543 3.342246 37.866289 23.350769 0.000002 0.000001 -0.000004 3.608242 11.609259 16.955209 -44.638746 53.272317 70.560745 -0.000001 0.000001 0.000000 22.361848 -4.271786 41.404009 42.310826 34.896311 13.793804 16.851306 -20.758268 -4.962523 3.222811 -35.414145 -21.752262 0.000002 -0.000001 0.000000 1.375407 -5.012850 49.705134 1.447728 -3.376468 46.406255 0.848489 -2.682126 35.104126 -0.000000 -0.000002 -0.000000 -88.898341 -2.270095 17.696305 62.119150 -1.791546 -5.998533 -14.808666 1.145863 -6.343154 0.337719 0.000001 -0.000006 -0.000000 0.000001 0.000000 -88.734211 -3.695679 -18.715927 61.076924 2.876340 9.052892 -14.574702 -0.335816 2.279847 0.496860 -0.000002 -0.000000 -0.000000 -0.000001 0.000000 
